<?xml version="1.0" encoding="utf-8"?>
<!-- Generator: Adobe Illustrator 19.2.1, SVG Export Plug-In . SVG Version: 6.00 Build 0)  -->
<svg version="1.1" id="Calque_1" xmlns="http://www.w3.org/2000/svg" xmlns:xlink="http://www.w3.org/1999/xlink" x="0px" y="0px"
	 viewBox="0 0 52.6 136.5" style="enable-background:new 0 0 52.6 136.5;" xml:space="preserve">
<style type="text/css">
	.st0{display:none;}
	.st1{display:inline;fill:#9E9E9E;}
	.st2{display:inline;}
	.st3{fill:#666666;}
	.st4{fill:#FFFFFF;}
	.st5{fill:none;stroke:#FFFFFF;stroke-width:3;stroke-miterlimit:10;}
</style>
<g id="Calque_2" class="st0">
	<rect x="-9.9" y="4.1" class="st1" width="78.7" height="132.3"/>
</g>
<g id="Calque_1_2_">
	<g id="arrows_1_" class="st0">
		<g id="Calque_3" class="st2">
			<rect x="-18.7" y="4.1" class="st3" width="92.3" height="112.5"/>
		</g>
		<g id="Calque_1_1_" class="st2">
			<circle cx="26.3" cy="17.1" r="3"/>
			<path d="M26.3,4.6c-8.3,0-15,6.7-15,15v25c0,8.3,6.7,15,15,15s15-6.7,15-15v-25C41.3,11.3,34.6,4.6,26.3,4.6z M39.3,44.6
				c0,7.2-5.8,13-13,13s-13-5.8-13-13v-25c0-7.2,5.8-13,13-13s13,5.8,13,13V44.6z"/>
		</g>
		<g id="arrows" class="st2">
			<g transform="translate(0,-952.36218)">
				<path class="st4" d="M50.5,1014.6c0-0.4-0.3-0.6-0.6-0.6c-0.1,0-0.3,0.1-0.4,0.2l-23.2,21.3l-23.2-21.4c-0.3-0.3-1.1,0.8-0.8,1
					l0,0l23.6,21.7c0.3,0.2,0.6,0.2,0.8,0l23.6-21.7C50.5,1015,50.6,1014.8,50.5,1014.6z M50.5,1027.4c0-0.4-0.3-0.6-0.6-0.6
					c-0.1,0-0.3,0.1-0.4,0.2l-23.2,21.3l-23.2-21.4c-0.3-0.3-0.7-0.2-0.9,0.1c-0.2,0.3-0.2,0.7,0.1,0.9l0,0l23.6,21.7
					c0.3,0.2,0.6,0.2,0.8,0l23.6-21.7C50.5,1027.7,50.6,1027.6,50.5,1027.4z"/>
			</g>
		</g>
	</g>
	<g id="mouse_1_">
		<path class="st5" d="M26.3,5.8c14.5,0,14.1,13.5,14.1,13.5l0.2,23.4c0,3.3-0.7,6.5-2.4,9.3c-2,3.3-5.6,6.7-11.8,6.7
			c-6.7,0-10.3-3.9-12.2-7.6c-1.4-2.6-2-5.6-2-8.6V18C12.2,18,12.8,5.8,26.3,5.8z"/>
		<circle class="st4" cx="26.3" cy="20.1" r="3.8"/>
	</g>
	<polyline class="st5" points="2.2,61.9 26.3,83.8 50.4,61.9 	"/>
	<polyline class="st5" points="2.2,76 26.3,98 50.4,76 	"/>
</g>
</svg>
