<?xml version="1.0" encoding="utf-8"?>
<!-- Generator: Adobe Illustrator 19.2.1, SVG Export Plug-In . SVG Version: 6.00 Build 0)  -->
<svg version="1.1" id="Calque_1" xmlns="http://www.w3.org/2000/svg" xmlns:xlink="http://www.w3.org/1999/xlink" x="0px" y="0px"
	 viewBox="0 0 80 80.3" style="enable-background:new 0 0 80 80.3;" xml:space="preserve">
<style type="text/css">
	.st0{display:none;stroke:#000000;stroke-miterlimit:10;}
	.st1{fill:none;}
	.st2{fill:#FFFFFF;}
	.st3{fill:none;stroke:#FFFFFF;stroke-width:5;stroke-miterlimit:10;}
</style>
<rect x="-5.5" y="-43.4" class="st0" width="100" height="100"/>
<rect x="94.5" y="-43.4" class="st0" width="100" height="100"/>
<rect x="194.5" y="-43.4" class="st0" width="100" height="100"/>
<rect x="-5.5" y="56.6" class="st0" width="100" height="100"/>
<rect x="94.5" y="56.6" class="st0" width="100" height="100"/>
<rect x="194.5" y="56.6" class="st0" width="100" height="100"/>
<rect x="-5.5" y="156.6" class="st0" width="100" height="100"/>
<rect x="94.5" y="156.6" class="st0" width="100" height="100"/>
<rect x="194.5" y="156.6" class="st0" width="100" height="100"/>
<rect x="94.5" y="56.6" class="st1" width="100" height="201"/>
<path class="st2" d="M29.9,64.6c1.4,1.4,3.6,1.4,5,0l0,0l0,0c0,0,0,0,0,0s0,0,0,0l24.1-24.1l-0.1-0.1l0.1-0.1L35,16.1l0,0
	c-1.4-1.4-3.7-1.4-5.1,0c-1.4,1.4-1.4,3.7,0,5.1l0,0l19.2,19.2L29.9,59.6l0,0C28.5,61,28.6,63.3,29.9,64.6z"/>
<rect x="94.5" y="157.1" class="st1" width="100" height="100.5"/>
<rect x="94.5" y="56.6" class="st1" width="100" height="100.5"/>
<text transform="matrix(1 0 0 1 94.5 172.5533)" style="font-family:'Arial-BoldMT'; font-size:5px;">Created by Matthias Van Wambeke</text>
<text transform="matrix(1 0 0 1 94.5 177.5533)" style="font-family:'Arial-BoldMT'; font-size:5px;">from the Noun Project</text>
<circle class="st3" cx="40" cy="40.4" r="35.6"/>
</svg>
