<svg id="Calque_1" data-name="Calque 1" xmlns="http://www.w3.org/2000/svg" viewBox="0 0 50.22 95.73"><defs><style>.cls-1{fill:none;stroke:#fff;stroke-miterlimit:10;stroke-width:3px;}.cls-2{fill:#fff;}</style></defs><title>souris</title><g id="Calque_1-2" data-name="Calque 1"><g id="mouse"><path class="cls-1" d="M26.3,5.8c14.5,0,14.1,13.5,14.1,13.5l0.2,23.4A17.69,17.69,0,0,1,38.2,52a13.21,13.21,0,0,1-11.8,6.7,13.07,13.07,0,0,1-12.2-7.6,18.14,18.14,0,0,1-2-8.6V18S12.8,5.8,26.3,5.8Z" transform="translate(-1.19 -4.3)"/><circle class="cls-2" cx="25.11" cy="15.8" r="3.8"/></g><polyline class="cls-1" points="1.01 57.6 25.11 79.5 49.21 57.6"/><polyline class="cls-1" points="1.01 71.7 25.11 93.7 49.21 71.7"/></g></svg>